<mxfile host="Electron" modified="2024-01-19T15:13:24.326Z" agent="Mozilla/5.0 (X11; Linux x86_64) AppleWebKit/537.36 (KHTML, like Gecko) draw.io/22.0.3 Chrome/114.0.5735.289 Electron/25.8.4 Safari/537.36" etag="T22MyBALZjEi9a_cgDFW" version="22.0.3" type="device">
  <diagram name="Page-1" id="13e1069c-82ec-6db2-03f1-153e76fe0fe0">
    <mxGraphModel dx="1434" dy="848" grid="1" gridSize="10" guides="1" tooltips="1" connect="1" arrows="1" fold="1" page="1" pageScale="1" pageWidth="1100" pageHeight="850" background="none" math="0" shadow="0">
      <root>
        <mxCell id="0" />
        <mxCell id="1" parent="0" />
        <mxCell id="RMQh_AQDME702Oou4bjD-7" value="Baza podataka" style="shape=umlLifeline;perimeter=lifelinePerimeter;whiteSpace=wrap;html=1;container=1;collapsible=0;recursiveResize=0;outlineConnect=0;rounded=1;shadow=0;comic=0;labelBackgroundColor=none;strokeWidth=1;fontFamily=Verdana;fontSize=12;align=center;" vertex="1" parent="1">
          <mxGeometry x="540" y="80" width="111" height="570" as="geometry" />
        </mxCell>
        <mxCell id="RMQh_AQDME702Oou4bjD-10" value="UC12 - Kreiranje recepata" style="shape=umlFrame;whiteSpace=wrap;html=1;pointerEvents=0;width=80;height=60;" vertex="1" parent="RMQh_AQDME702Oou4bjD-7">
          <mxGeometry x="-530" y="-10" width="641" height="610" as="geometry" />
        </mxCell>
        <mxCell id="RMQh_AQDME702Oou4bjD-3" value="Web aplikacija" style="shape=umlLifeline;perimeter=lifelinePerimeter;whiteSpace=wrap;html=1;container=1;collapsible=0;recursiveResize=0;outlineConnect=0;rounded=1;shadow=0;comic=0;labelBackgroundColor=none;strokeWidth=1;fontFamily=Verdana;fontSize=12;align=center;" vertex="1" parent="RMQh_AQDME702Oou4bjD-7">
          <mxGeometry x="-250" width="100" height="580" as="geometry" />
        </mxCell>
        <mxCell id="RMQh_AQDME702Oou4bjD-4" value="" style="html=1;points=[];perimeter=orthogonalPerimeter;rounded=0;shadow=0;comic=0;labelBackgroundColor=none;strokeWidth=1;fontFamily=Verdana;fontSize=12;align=center;" vertex="1" parent="RMQh_AQDME702Oou4bjD-3">
          <mxGeometry x="45" y="120" width="10" height="440" as="geometry" />
        </mxCell>
        <mxCell id="RMQh_AQDME702Oou4bjD-26" value="" style="endArrow=classic;html=1;rounded=0;" edge="1" parent="RMQh_AQDME702Oou4bjD-7">
          <mxGeometry width="50" height="50" relative="1" as="geometry">
            <mxPoint x="-390.5" y="230" as="sourcePoint" />
            <mxPoint x="-200.5" y="230" as="targetPoint" />
          </mxGeometry>
        </mxCell>
        <mxCell id="RMQh_AQDME702Oou4bjD-27" value="Submit()" style="edgeLabel;html=1;align=center;verticalAlign=middle;resizable=0;points=[];" vertex="1" connectable="0" parent="RMQh_AQDME702Oou4bjD-26">
          <mxGeometry x="0.1421" y="2" relative="1" as="geometry">
            <mxPoint x="-17" y="-8" as="offset" />
          </mxGeometry>
        </mxCell>
        <mxCell id="RMQh_AQDME702Oou4bjD-13" value="" style="html=1;points=[];perimeter=orthogonalPerimeter;rounded=0;shadow=0;comic=0;labelBackgroundColor=none;strokeWidth=1;fontFamily=Verdana;fontSize=12;align=center;" vertex="1" parent="RMQh_AQDME702Oou4bjD-7">
          <mxGeometry x="50.5" y="230" width="10" height="320" as="geometry" />
        </mxCell>
        <mxCell id="RMQh_AQDME702Oou4bjD-32" value="Loop - za svaki sastojak" style="shape=umlFrame;whiteSpace=wrap;html=1;pointerEvents=0;width=80;height=35;" vertex="1" parent="RMQh_AQDME702Oou4bjD-7">
          <mxGeometry x="-230" y="245" width="300" height="85" as="geometry" />
        </mxCell>
        <mxCell id="RMQh_AQDME702Oou4bjD-33" value="" style="endArrow=classic;html=1;rounded=0;" edge="1" parent="RMQh_AQDME702Oou4bjD-7">
          <mxGeometry width="50" height="50" relative="1" as="geometry">
            <mxPoint x="-200.5" y="350" as="sourcePoint" />
            <mxPoint x="50.5" y="350" as="targetPoint" />
          </mxGeometry>
        </mxCell>
        <mxCell id="RMQh_AQDME702Oou4bjD-34" value="Spremi podatke o receptu" style="edgeLabel;html=1;align=center;verticalAlign=middle;resizable=0;points=[];" vertex="1" connectable="0" parent="RMQh_AQDME702Oou4bjD-33">
          <mxGeometry x="0.4064" y="-2" relative="1" as="geometry">
            <mxPoint x="-66" y="-12" as="offset" />
          </mxGeometry>
        </mxCell>
        <mxCell id="RMQh_AQDME702Oou4bjD-35" value="" style="endArrow=classic;html=1;rounded=0;" edge="1" parent="RMQh_AQDME702Oou4bjD-7">
          <mxGeometry width="50" height="50" relative="1" as="geometry">
            <mxPoint x="-200.5" y="370" as="sourcePoint" />
            <mxPoint x="50.5" y="370" as="targetPoint" />
          </mxGeometry>
        </mxCell>
        <mxCell id="RMQh_AQDME702Oou4bjD-36" value="Spremi podatke o korištenim sastojcima" style="edgeLabel;html=1;align=center;verticalAlign=middle;resizable=0;points=[];" vertex="1" connectable="0" parent="RMQh_AQDME702Oou4bjD-35">
          <mxGeometry x="0.4064" y="-2" relative="1" as="geometry">
            <mxPoint x="-66" y="-12" as="offset" />
          </mxGeometry>
        </mxCell>
        <mxCell id="RMQh_AQDME702Oou4bjD-37" value="" style="endArrow=classic;html=1;rounded=0;" edge="1" parent="RMQh_AQDME702Oou4bjD-7">
          <mxGeometry width="50" height="50" relative="1" as="geometry">
            <mxPoint x="-200.5" y="390" as="sourcePoint" />
            <mxPoint x="50.5" y="390" as="targetPoint" />
            <Array as="points" />
          </mxGeometry>
        </mxCell>
        <mxCell id="RMQh_AQDME702Oou4bjD-38" value="Spremi podatke o koracima recepta" style="edgeLabel;html=1;align=center;verticalAlign=middle;resizable=0;points=[];" vertex="1" connectable="0" parent="RMQh_AQDME702Oou4bjD-37">
          <mxGeometry x="0.4064" y="-2" relative="1" as="geometry">
            <mxPoint x="-66" y="-12" as="offset" />
          </mxGeometry>
        </mxCell>
        <mxCell id="RMQh_AQDME702Oou4bjD-42" value="alt" style="shape=umlFrame;whiteSpace=wrap;html=1;pointerEvents=0;" vertex="1" parent="RMQh_AQDME702Oou4bjD-7">
          <mxGeometry x="-470" y="400" width="540" height="140" as="geometry" />
        </mxCell>
        <mxCell id="RMQh_AQDME702Oou4bjD-43" value="" style="endArrow=classic;html=1;rounded=0;" edge="1" parent="RMQh_AQDME702Oou4bjD-7">
          <mxGeometry width="50" height="50" relative="1" as="geometry">
            <mxPoint x="-205" y="460" as="sourcePoint" />
            <mxPoint x="-390.5" y="460" as="targetPoint" />
          </mxGeometry>
        </mxCell>
        <mxCell id="RMQh_AQDME702Oou4bjD-44" value="Recept uspješno kreiran" style="edgeLabel;html=1;align=center;verticalAlign=middle;resizable=0;points=[];" vertex="1" connectable="0" parent="RMQh_AQDME702Oou4bjD-43">
          <mxGeometry x="-0.2345" y="3" relative="1" as="geometry">
            <mxPoint x="-24" y="-13" as="offset" />
          </mxGeometry>
        </mxCell>
        <mxCell id="RMQh_AQDME702Oou4bjD-45" value="" style="endArrow=classic;html=1;rounded=0;" edge="1" parent="RMQh_AQDME702Oou4bjD-7">
          <mxGeometry width="50" height="50" relative="1" as="geometry">
            <mxPoint x="50.5" y="510" as="sourcePoint" />
            <mxPoint x="-200.5" y="510" as="targetPoint" />
          </mxGeometry>
        </mxCell>
        <mxCell id="RMQh_AQDME702Oou4bjD-46" value="Neispravni podaci" style="edgeLabel;html=1;align=center;verticalAlign=middle;resizable=0;points=[];" vertex="1" connectable="0" parent="RMQh_AQDME702Oou4bjD-45">
          <mxGeometry x="-0.7251" y="3" relative="1" as="geometry">
            <mxPoint x="-96" y="-13" as="offset" />
          </mxGeometry>
        </mxCell>
        <mxCell id="RMQh_AQDME702Oou4bjD-47" value="" style="endArrow=classic;html=1;rounded=0;" edge="1" parent="RMQh_AQDME702Oou4bjD-7">
          <mxGeometry width="50" height="50" relative="1" as="geometry">
            <mxPoint x="-204.5" y="530" as="sourcePoint" />
            <mxPoint x="-390" y="530" as="targetPoint" />
          </mxGeometry>
        </mxCell>
        <mxCell id="RMQh_AQDME702Oou4bjD-48" value="Neispravni podaci, pokušaj ponovo" style="edgeLabel;html=1;align=center;verticalAlign=middle;resizable=0;points=[];" vertex="1" connectable="0" parent="RMQh_AQDME702Oou4bjD-47">
          <mxGeometry x="-0.2345" y="3" relative="1" as="geometry">
            <mxPoint x="-24" y="-13" as="offset" />
          </mxGeometry>
        </mxCell>
        <mxCell id="RMQh_AQDME702Oou4bjD-11" value="Korisnik" style="shape=umlLifeline;perimeter=lifelinePerimeter;whiteSpace=wrap;html=1;container=1;collapsible=0;recursiveResize=0;outlineConnect=0;rounded=1;shadow=0;comic=0;labelBackgroundColor=none;strokeWidth=1;fontFamily=Verdana;fontSize=12;align=center;" vertex="1" parent="1">
          <mxGeometry x="100" y="80" width="100" height="580" as="geometry" />
        </mxCell>
        <mxCell id="RMQh_AQDME702Oou4bjD-12" value="" style="html=1;points=[];perimeter=orthogonalPerimeter;rounded=0;shadow=0;comic=0;labelBackgroundColor=none;strokeWidth=1;fontFamily=Verdana;fontSize=12;align=center;" vertex="1" parent="RMQh_AQDME702Oou4bjD-11">
          <mxGeometry x="45" y="100" width="10" height="470" as="geometry" />
        </mxCell>
        <mxCell id="RMQh_AQDME702Oou4bjD-50" value="Ispravni podaci" style="text;html=1;strokeColor=none;fillColor=none;align=center;verticalAlign=middle;whiteSpace=wrap;rounded=0;" vertex="1" parent="RMQh_AQDME702Oou4bjD-11">
          <mxGeometry x="-30" y="440" width="60" height="30" as="geometry" />
        </mxCell>
        <mxCell id="RMQh_AQDME702Oou4bjD-51" value="Neispravni podaci" style="text;html=1;strokeColor=none;fillColor=none;align=center;verticalAlign=middle;whiteSpace=wrap;rounded=0;" vertex="1" parent="RMQh_AQDME702Oou4bjD-11">
          <mxGeometry x="-30" y="500" width="60" height="30" as="geometry" />
        </mxCell>
        <mxCell id="RMQh_AQDME702Oou4bjD-15" value="KreiranjeRecepta()" style="html=1;verticalAlign=bottom;endArrow=block;labelBackgroundColor=none;fontFamily=Verdana;fontSize=12;edgeStyle=elbowEdgeStyle;elbow=vertical;" edge="1" parent="1" source="RMQh_AQDME702Oou4bjD-12" target="RMQh_AQDME702Oou4bjD-4">
          <mxGeometry relative="1" as="geometry">
            <mxPoint x="220" y="190" as="sourcePoint" />
            <Array as="points">
              <mxPoint x="310" y="210" />
            </Array>
          </mxGeometry>
        </mxCell>
        <mxCell id="RMQh_AQDME702Oou4bjD-22" value="" style="endArrow=classic;html=1;rounded=0;" edge="1" parent="1" source="RMQh_AQDME702Oou4bjD-3" target="RMQh_AQDME702Oou4bjD-12">
          <mxGeometry width="50" height="50" relative="1" as="geometry">
            <mxPoint x="330" y="253" as="sourcePoint" />
            <mxPoint x="570" y="410" as="targetPoint" />
            <Array as="points">
              <mxPoint x="260" y="253" />
            </Array>
          </mxGeometry>
        </mxCell>
        <mxCell id="RMQh_AQDME702Oou4bjD-23" value="Piikaz Sučelja" style="edgeLabel;html=1;align=center;verticalAlign=middle;resizable=0;points=[];" vertex="1" connectable="0" parent="RMQh_AQDME702Oou4bjD-22">
          <mxGeometry x="-0.022" y="2" relative="1" as="geometry">
            <mxPoint x="-8" y="-10" as="offset" />
          </mxGeometry>
        </mxCell>
        <mxCell id="RMQh_AQDME702Oou4bjD-24" value="" style="endArrow=classic;html=1;rounded=0;" edge="1" parent="1" source="RMQh_AQDME702Oou4bjD-11" target="RMQh_AQDME702Oou4bjD-3">
          <mxGeometry width="50" height="50" relative="1" as="geometry">
            <mxPoint x="520" y="460" as="sourcePoint" />
            <mxPoint x="570" y="410" as="targetPoint" />
            <Array as="points">
              <mxPoint x="260" y="280" />
            </Array>
          </mxGeometry>
        </mxCell>
        <mxCell id="RMQh_AQDME702Oou4bjD-25" value="Unos pdataka" style="edgeLabel;html=1;align=center;verticalAlign=middle;resizable=0;points=[];" vertex="1" connectable="0" parent="RMQh_AQDME702Oou4bjD-24">
          <mxGeometry x="-0.0053" y="-1" relative="1" as="geometry">
            <mxPoint x="1" y="-11" as="offset" />
          </mxGeometry>
        </mxCell>
        <mxCell id="RMQh_AQDME702Oou4bjD-30" value="" style="endArrow=classic;html=1;rounded=0;" edge="1" parent="1">
          <mxGeometry width="50" height="50" relative="1" as="geometry">
            <mxPoint x="590.5" y="390" as="sourcePoint" />
            <mxPoint x="339.5" y="390" as="targetPoint" />
            <Array as="points">
              <mxPoint x="460" y="390" />
            </Array>
          </mxGeometry>
        </mxCell>
        <mxCell id="RMQh_AQDME702Oou4bjD-31" value="Sastojak postoji" style="edgeLabel;html=1;align=center;verticalAlign=middle;resizable=0;points=[];" vertex="1" connectable="0" parent="RMQh_AQDME702Oou4bjD-30">
          <mxGeometry x="-0.0478" y="4" relative="1" as="geometry">
            <mxPoint x="-10" y="-14" as="offset" />
          </mxGeometry>
        </mxCell>
        <mxCell id="RMQh_AQDME702Oou4bjD-28" value="" style="endArrow=classic;html=1;rounded=0;" edge="1" parent="1">
          <mxGeometry width="50" height="50" relative="1" as="geometry">
            <mxPoint x="339.5" y="360" as="sourcePoint" />
            <mxPoint x="590.5" y="360" as="targetPoint" />
            <Array as="points">
              <mxPoint x="470" y="360" />
            </Array>
          </mxGeometry>
        </mxCell>
        <mxCell id="RMQh_AQDME702Oou4bjD-29" value="Provjera podataka o sastojku" style="edgeLabel;html=1;align=center;verticalAlign=middle;resizable=0;points=[];" vertex="1" connectable="0" parent="RMQh_AQDME702Oou4bjD-28">
          <mxGeometry x="0.1036" y="-3" relative="1" as="geometry">
            <mxPoint x="2" y="-13" as="offset" />
          </mxGeometry>
        </mxCell>
        <mxCell id="RMQh_AQDME702Oou4bjD-39" value="" style="endArrow=classic;html=1;rounded=0;" edge="1" parent="1">
          <mxGeometry width="50" height="50" relative="1" as="geometry">
            <mxPoint x="590.5" y="520" as="sourcePoint" />
            <mxPoint x="339.5" y="520" as="targetPoint" />
          </mxGeometry>
        </mxCell>
        <mxCell id="RMQh_AQDME702Oou4bjD-40" value="Podaci uspješno spremljeni" style="edgeLabel;html=1;align=center;verticalAlign=middle;resizable=0;points=[];" vertex="1" connectable="0" parent="RMQh_AQDME702Oou4bjD-39">
          <mxGeometry x="-0.7251" y="3" relative="1" as="geometry">
            <mxPoint x="-96" y="-13" as="offset" />
          </mxGeometry>
        </mxCell>
        <mxCell id="RMQh_AQDME702Oou4bjD-49" value="" style="endArrow=none;dashed=1;html=1;rounded=0;entryX=1.006;entryY=0.405;entryDx=0;entryDy=0;entryPerimeter=0;exitX=0.006;exitY=0.405;exitDx=0;exitDy=0;exitPerimeter=0;" edge="1" parent="1">
          <mxGeometry width="50" height="50" relative="1" as="geometry">
            <mxPoint x="70" y="564.4999999999999" as="sourcePoint" />
            <mxPoint x="610" y="564.4999999999999" as="targetPoint" />
          </mxGeometry>
        </mxCell>
      </root>
    </mxGraphModel>
  </diagram>
</mxfile>
